ply
format ascii 1.0
element vertex 881
property double x
property double y
property double z
element face 823
property list uchar int vertex_indices
end_header
17 60 5
17 60 8
16 64 5
16 64 8
19 64 5
19 64 8
20 61 5
20 61 8
-9 56 5
-9 56 8
-8 59 5
-8 59 8
-4 59 5
-4 59 8
-3 57 5
-3 57 8
-39 49 5
-39 49 8
-25 51 5
-25 51 8
-25 49 5
-25 49 8
-13 46 5
-13 46 8
-18 43 5
-18 43 8
-36 39 5
-36 39 8
-7 48 5
-7 48 8
-9 46 5
-9 46 8
-39 45 5
-39 45 8
-20 49 5
-20 49 8
9 51 5
9 51 8
1 48 5
1 48 8
-17 52 5
-17 52 8
-15 52 5
-15 52 8
-14 55 5
-14 55 8
9 57 5
9 57 8
32 57 5
32 57 8
28 54 5
28 54 8
25 61 5
25 61 8
39 58 5
39 58 8
25 64 5
25 64 8
39 64 5
39 64 8
32 59 8
32 59 9
21 60 8
21 60 9
27 60 8
27 60 9
27 64 8
27 64 9
39 64 9
39 58 9
27 56 8
27 56 9
27.0243 53.8459 8
27.0243 53.8459 9
20 55 8
20 55 9
30.88 56.16 8
30.88 56.16 9
39 64 10
39 59 9
39 59 10
34.1 58.7 9
34.1 58.7 10
33 64 9
33 64 10
26 59 9
26 59 10
25.88 54.16 9
25.88 54.16 10
21.96 54.72 9
21.96 54.72 10
22 59 9
22 59 10
-20 45 8
-20 45 9
-20.8588 42.3647 8
-20.8588 42.3647 9
-24 43 8
-24 43 9
-26.0471 41.2118 8
-26.0471 41.2118 9
-37 41 8
-37 41 9
-25 48 8
-25 48 9
-8 47 8
-8 47 9
-36.06 49.42 8
-36.06 49.42 9
-26.12 50.84 8
-26.12 50.84 9
6.91781 50.2192 8
6.91781 50.2192 9
4.83562 49.4384 8
4.83562 49.4384 9
-6 50 8
-6 50 9
-19 48 8
-19 48 9
-8 49 8
-8 49 9
-14 50 8
-14 50 9
-7 53 8
-7 53 9
7 52 8
7 52 9
-13.0385 55.1923 8
-13.0385 55.1923 9
-8 55 8
-8 55 9
-4 53 8
-4 53 9
12 53 8
12 53 9
0 57 8
0 57 9
12 56 8
12 56 9
6.2 49.6 9
6.2 49.6 10
-4.01639 49.8197 9
-4.01639 49.8197 10
-4 53 10
0 53 9
0 53 10
-0.5 56.5 9
-0.5 56.5 10
5.04828 56.5793 9
5.04828 56.5793 10
-30 46 9
-30 46 10
-30 42 9
-30 42 10
-33 40 9
-33 40 10
-36.7538 42.9692 9
-36.7538 42.9692 10
-34.0198 49.198 9
-34.0198 49.198 10
-30.64 46.48 10
-30.64 46.48 11
-31.8462 40.7692 10
-31.8462 40.7692 11
-34.76 41.32 10
-34.76 41.32 11
-36.36 42.52 10
-36.36 42.52 11
-34.8 47.4 10
-34.8 47.4 11
-31.2308 44.8462 11
-31.2308 44.8462 12
-31.8077 41.9615 11
-31.8077 41.9615 12
-35.4 41.8 11
-35.4 41.8 12
-34.4 46.2 11
-34.4 46.2 12
51 63 5
51 63 10
45 61 5
45 61 10
44 64 5
44 64 10
48.9 63.3 10
48.9 63.3 11
48.9 62.3 10
48.9 62.3 11
44.6 62.2 10
44.6 62.2 11
44 64 11
-58 49 5
-58 49 12
-64 49 5
-64 49 12
-64 56 5
-64 56 12
-58 28 5
-58 28 12
-64 27 5
-64 27 12
-64 35 5
-64 35 12
-56 37 5
-56 37 12
-45 40 5
-45 40 12
-47 33 5
-47 33 12
-55 43 5
-55 43 12
-43 47 5
-43 47 12
-42 41 5
-42 41 12
-48 58 5
-48 58 12
-47 33 13
-50 33 12
-50 33 13
-51 36 12
-51 36 13
-48 44 12
-48 44 13
-45.2642 39.0755 12
-45.2642 39.0755 13
-55.6486 39.1081 12
-55.6486 39.1081 13
-56 45 12
-56 45 13
-53.9077 57.2615 12
-53.9077 57.2615 13
-51 55 12
-51 55 13
-59 49 12
-59 49 13
-64 50 12
-64 50 13
-63.8769 56.0154 12
-63.8769 56.0154 13
-55 55 13
-55 55 14
-55 50 13
-55 50 14
-64 50 14
-64 56 13
-64 56 14
-52 51 13
-52 51 14
-52 49 13
-52 49 14
-54 49 13
-54 49 14
-54 52 13
-54 52 14
-48 36 13
-48 36 14
-51.64 36.48 13
-51.64 36.48 14
-52 39 13
-52 39 14
-48 41 13
-48 41 14
58 32 5
58 32 7
56 32 5
56 32 7
51 38 5
51 38 7
64 39 5
64 39 7
64 26 5
64 26 7
58 39 5
58 39 7
59 51 5
59 51 7
49 38 5
49 38 7
50 53 5
50 53 7
60 35 7
60 35 34
53.2951 35.2459 7
53.2951 35.2459 34
51.4098 37.5082 7
51.4098 37.5082 34
58 39 34
60 38 7
60 38 34
59 51 34
50 38 7
50 38 34
50.9529 52.7882 7
50.9529 52.7882 34
58.3379 43.0552 34
58.3379 43.0552 35
60 35 35
53 35 34
53 35 35
54 44 34
54 44 35
58 42 35
58 42 36
59 35 35
59 35 36
54 35 35
54 35 36
54 44 36
64 35 7
64 35 8
64 27 7
64 27 8
60.5 29.5 7
60.5 29.5 8
61 35 7
61 35 8
-29 17 5
-29 17 8
-38 12 5
-38 12 8
-58 6 5
-58 6 8
-58 9 5
-58 9 8
-61 14 5
-61 14 8
-13 21 5
-13 21 8
-60 16 5
-60 16 8
-39 23 5
-39 23 8
-1 13 5
-1 13 8
-5 13 5
-5 13 8
-10 20 5
-10 20 8
-35 26 5
-35 26 8
-23 29 5
-23 29 8
-21 31 5
-21 31 8
-14 32 5
-14 32 8
-10 35 5
-10 35 8
-1 38 5
-1 38 8
1 24 8
1 24 14
-1 13 14
-5 13 14
-11.2 20.4 8
-11.2 20.4 14
-15.8235 20.2941 8
-15.8235 20.2941 14
-19.1176 19.4706 8
-19.1176 19.4706 14
-23 20 8
-23 20 14
-25.8235 28.2941 8
-25.8235 28.2941 14
-14 32 14
-1 39 8
-1 39 14
-0.648 14.936 14
-0.648 14.936 15
-7.52 16.36 14
-7.52 16.36 15
-8 25 14
-8 25 15
-13 30 14
-13 30 15
-11.6147 33.2844 14
-11.6147 33.2844 15
-7.3211 35.5963 14
-7.3211 35.5963 15
-0.58952 35.9214 14
-0.58952 35.9214 15
0.868996 24.9825 14
0.868996 24.9825 15
-4.93578 36.8807 14
-4.93578 36.8807 15
-13 26 14
-13 26 22
-13 22 14
-13 22 22
-19 19 14
-19 19 22
-22.7647 19.9412 14
-22.7647 19.9412 22
-25.0588 29.2353 14
-25.0588 29.2353 22
-15.8824 31.5294 14
-15.8824 31.5294 22
-17 29 22
-17 29 23
-17 22 22
-17 22 23
-22 22 22
-22 22 23
-21 29 22
-21 29 23
-16 27 23
-16 27 24
-17 22 24
-20 22 23
-20 22 24
-21.14 28.02 23
-21.14 28.02 24
-19 29 23
-19 29 24
-40 16 8
-40 16 9
-43 13 8
-43 13 9
-46 13 8
-46 13 9
-45 19 8
-45 19 9
-31.717 15.4906 8
-31.717 15.4906 9
-42 19 8
-42 19 9
-37 22 8
-37 22 9
-31 21 8
-31 21 9
-48 9 8
-48 9 23
-58 6 23
-60.6 14.8 8
-60.6 14.8 23
-51 19 8
-51 19 23
-51 14 23
-51 14 24
-50.7523 8.17431 23
-50.7523 8.17431 24
-56 10 23
-56 10 24
-56 15 23
-56 15 24
-52 13 24
-52 13 25
-52.9231 9.38461 24
-52.9231 9.38461 25
-56 12 24
-56 12 25
-54.8462 14.7692 24
-54.8462 14.7692 25
9 26 5
9 26 9
16 34 5
16 34 9
17 22 5
17 22 9
33 -55 5
33 -55 9
31 -55 5
31 -55 9
34 -48 5
34 -48 9
32 -45 5
32 -45 9
15 -47 5
15 -47 9
16 -44 5
16 -44 9
17 -55 5
17 -55 9
15 -54 5
15 -54 9
33 -64 5
33 -64 9
17 -58 5
17 -58 9
31 -57 5
31 -57 9
33 -58 5
33 -58 9
15 -58 5
15 -58 9
15 -64 5
15 -64 9
41 -47 5
41 -47 9
40 3 5
40 3 9
34 22 5
34 22 9
42 7 5
42 7 9
35 34 5
35 34 9
42 26 5
42 26 9
30 27 5
30 27 9
22 36 5
22 36 9
23 28 5
23 28 9
30 36 5
30 36 9
9 -45 5
9 -45 9
16 13 5
16 13 9
40 13 9
40 13 10
40.1599 -4.9968 9
40.1599 -4.9968 10
34 -5 9
34 -5 10
34 23 9
34 23 10
42 17 9
42 17 10
30 28 9
30 28 10
38.7168 29.7522 9
38.7168 29.7522 10
42 24 9
42 24 10
24 29 9
24 29 10
17 24 9
17 24 10
16 -5 9
16 -5 10
10 -5 9
10 -5 10
19 27 9
19 27 10
19 25 9
19 25 10
9 23 9
9 23 10
11.354 28.6903 9
11.354 28.6903 10
13 29 9
13 29 10
22 27 9
22 27 10
15.0708 32.9381 9
15.0708 32.9381 10
22 36 10
30 36 10
35 34 10
15 -4 10
15 -4 11
10 -5 11
11 13 10
11 13 11
16 25 10
16 25 11
9.17834 18.0064 10
9.17834 18.0064 11
12 29 10
12 29 11
18 32 10
18 32 11
21 29 10
21 29 11
31 29 10
31 29 11
36 28 10
36 28 11
31.2683 26.4146 10
31.2683 26.4146 11
19.1034 34.7586 10
19.1034 34.7586 11
29 35 10
29 35 11
34 33 10
34 33 11
15.7245 17.0095 11
15.7245 17.0095 12
15.6211 14.0131 11
15.6211 14.0131 12
10.5172 14.2069 11
10.5172 14.2069 12
9.48276 16.7931 11
9.48276 16.7931 12
12 16 12
12 16 13
12 15 12
12 15 13
11 15 12
11 15 13
11 16 12
11 16 13
40 17 10
40 17 11
39 -4 10
39 -4 11
35 -5 10
35 -5 11
34 16 10
34 16 11
38 19 10
38 19 11
36 16 11
36 16 12
36 14 11
36 14 12
34 16 12
14 -30 9
14 -30 10
14 -33 9
14 -33 10
11 -33 9
11 -33 10
11 -29 9
11 -29 10
32 -46 9
32 -46 18
32 -64 9
32 -64 18
17 -64 9
17 -64 18
17 -45 9
17 -45 18
28.9469 -45.7965 18
28.9469 -45.7965 19
31 -47 18
31 -47 19
31 -64 18
31 -64 19
19 -64 18
19 -64 19
18.9911 -45.1327 18
18.9911 -45.1327 19
26 -45 19
26 -45 20
29 -47 19
29 -47 20
29 -64 19
29 -64 20
19 -64 20
19 -49 19
19 -49 20
21 -45 19
21 -45 20
27 -55 20
27 -55 21
28 -64 20
28 -64 21
21 -64 20
21 -64 21
28 -49 20
28 -49 21
29 -51 20
29 -51 21
21 -49 20
21 -49 21
-34 -53 5
-34 -53 13
-40 -53 5
-40 -53 13
-44 -51 5
-44 -51 13
-43 -37 5
-43 -37 13
-34 -11 5
-34 -11 13
-32 -44 5
-32 -44 13
-45 -31 5
-45 -31 13
-46 -14 5
-46 -14 13
-42 3 5
-42 3 13
-34 3 5
-34 3 13
-30 0 5
-30 0 13
-34 -2 13
-34 -2 14
-34 -5 13
-34 -5 14
-37 -5 13
-37 -5 14
-38 -3 13
-38 -3 14
-36 -10 13
-36 -10 14
-36 -15 13
-36 -15 14
-38 -15 13
-38 -15 14
-39 -13 13
-39 -13 14
-38 -10 13
-38 -10 14
-37 -20 13
-37 -20 14
-37 -23 13
-37 -23 14
-40 -23 13
-40 -23 14
-39 -20 13
-39 -20 14
-36 -29 13
-36 -29 14
-36 -32 13
-36 -32 14
-39 -32 13
-39 -32 14
-38 -29 13
-38 -29 14
-34 -48 13
-34 -48 14
-41 -47 13
-41 -47 14
-42 -41 13
-42 -41 14
-39 -38 13
-39 -38 14
-34 -37 13
-34 -37 14
-43.8528 -48.9391 13
-43.8528 -48.9391 14
-43.2 -51.4 13
-43.2 -51.4 14
-44 -51 14
-43.8579 -49.0102 13
-43.8579 -49.0102 14
-61 -21 5
-61 -21 8
-63 -23 5
-63 -23 8
-64 -6 5
-64 -6 8
-62 -8 8
-62 -8 11
-61.5 -21.5 8
-61.5 -21.5 11
-63 -24 8
-63 -24 11
-64 -5 8
-64 -5 11
-61.1421 -20.0102 11
-61.1421 -20.0102 12
-62 -23 11
-62 -23 12
-63.0552 -22.9503 11
-63.0552 -22.9503 12
-63.895 -6.99448 11
-63.895 -6.99448 12
-60 -46 5
-60 -46 12
-54 -46 5
-54 -46 12
-55 -53 5
-55 -53 12
-62 -44 5
-62 -44 12
-57 -54 5
-57 -54 12
-64 -54 5
-64 -54 12
-64 -28 5
-64 -28 12
-31 -62 5
-31 -62 12
-30 -64 5
-30 -64 12
-40 -64 5
-40 -64 12
-40 -62 5
-40 -62 12
-38 -62 12
-38 -62 14
-38 -64 12
-38 -64 14
-40 -64 14
-40 -62 14
-30 60 5
-30 60 6
-29 57 5
-29 57 6
-32 56 5
-32 56 6
-33 64 5
-33 64 6
-27 60 5
-27 60 6
-26 64 5
-26 64 6
64 53 5
64 53 6
61 53 5
61 53 6
60 57 5
60 57 6
64 59 5
64 59 6
64 59 7
64 52 6
64 52 7
60.9412 53.2353 6
60.9412 53.2353 7
61 59 6
61 59 7
-1 -19 5
-1 -19 13
-21 -19 5
-21 -19 13
-20 -6 5
-20 -6 13
-7 -4 5
-7 -4 13
-4 -7 5
-4 -7 13
-1 -7 5
-1 -7 13
-9 -8 13
-9 -8 14
-9 -10 13
-9 -10 14
-11 -10 13
-11 -10 14
-11 -8 13
-11 -8 14
59 -41 5
59 -41 11
64 -41 5
64 -41 11
64 -49 5
64 -49 11
50 -48 5
50 -48 11
58 -39 5
58 -39 11
58 -30 5
58 -30 11
51 -30 5
51 -30 11
64 -41 12
64 -49 12
50 -48 12
50.3323 -42.0185 11
50.3323 -42.0185 12
64 -42 12
64 -42 13
64 -47 12
64 -47 13
51 -47 12
51 -47 13
50.9949 -41.9289 12
50.9949 -41.9289 13
64 -43 13
64 -43 14
64 -46 13
64 -46 14
61 -46 13
61 -46 14
62 -43 13
62 -43 14
-1 -38 5
-1 -38 13
-1 -50 5
-1 -50 13
-20 -50 5
-20 -50 13
-21 -38 5
-21 -38 13
-9 -39 13
-9 -39 14
-9 -40 13
-9 -40 14
-11 -40 13
-11 -40 14
-11 -39 13
-11 -39 14
4 0 2 4 6
4 7 5 3 1
4 8 10 12 14
4 15 13 11 9
3 16 18 20
3 21 19 17
3 22 24 26
3 27 25 23
3 28 30 22
3 23 31 29
3 28 22 26
3 27 23 29
6 28 26 32 16 20 34
6 35 21 17 33 27 29
3 36 38 28
3 29 39 37
5 36 28 34 40 42
5 43 41 35 29 37
6 36 42 44 8 14 46
6 47 15 9 45 43 37
4 48 50 36 46
4 47 37 51 49
5 48 46 0 6 52
5 53 7 1 47 49
5 54 48 52 56 58
5 59 57 53 49 55
4 58 56 57 59
4 56 52 53 57
4 52 6 7 53
4 6 4 5 7
4 4 2 3 5
4 2 0 1 3
4 0 46 47 1
4 46 14 15 47
4 14 12 13 15
4 12 10 11 13
4 10 8 9 11
4 8 44 45 9
4 44 42 43 45
4 42 40 41 43
4 40 34 35 41
4 34 20 21 35
4 20 18 19 21
4 18 16 17 19
4 16 32 33 17
4 32 26 27 33
4 26 24 25 27
4 24 22 23 25
4 22 30 31 23
4 30 28 29 31
4 28 38 39 29
4 38 36 37 39
4 36 50 51 37
4 50 48 49 51
4 48 54 55 49
4 54 58 59 55
3 60 62 64
3 65 63 61
5 64 66 59 55 60
5 61 69 68 67 65
3 70 72 74
3 75 73 71
3 70 74 62
3 63 75 71
4 62 60 76 70
4 71 77 61 63
4 74 72 73 75
4 72 70 71 73
4 70 76 77 71
4 76 60 61 77
4 60 55 69 61
4 55 59 68 69
4 59 66 67 68
4 66 64 65 67
4 64 62 63 65
4 62 74 75 63
4 68 79 81 83
4 84 82 80 78
4 83 81 82 84
4 81 79 80 82
4 79 68 78 80
4 68 83 84 78
4 85 87 89 91
4 92 90 88 86
4 91 89 90 92
4 89 87 88 90
4 87 85 86 88
4 85 91 92 86
3 93 95 97
3 98 96 94
3 97 99 101
3 102 100 98
3 93 97 101
3 102 98 94
3 103 105 93
3 94 106 104
3 103 93 101
3 102 94 104
4 101 107 109 103
4 104 110 108 102
3 111 113 115
3 116 114 112
3 105 103 117
3 118 104 106
3 119 105 117
3 118 106 120
3 119 117 121
3 122 118 120
3 115 119 121
3 122 120 116
5 123 125 111 115 121
5 122 116 112 126 124
4 121 127 129 123
4 124 130 128 122
3 125 123 131
3 132 124 126
5 133 125 131 135 137
5 138 136 132 126 134
4 137 135 136 138
4 135 131 132 136
4 131 123 124 132
4 123 129 130 124
4 129 127 128 130
4 127 121 122 128
4 121 117 118 122
4 117 103 104 118
4 103 109 110 104
4 109 107 108 110
4 107 101 102 108
4 101 99 100 102
4 99 97 98 100
4 97 95 96 98
4 95 93 94 96
4 93 105 106 94
4 105 119 120 106
4 119 115 116 120
4 115 113 114 116
4 113 111 112 114
4 111 125 126 112
4 125 133 134 126
4 133 137 138 134
4 139 141 132 144
4 145 143 142 140
4 144 146 148 139
4 140 149 147 145
4 132 141 142 143
4 141 139 140 142
4 139 148 149 140
4 148 146 147 149
4 146 144 145 147
4 144 132 143 145
5 150 152 154 156 158
5 159 157 155 153 151
4 158 156 157 159
4 156 154 155 157
4 154 152 153 155
4 152 150 151 153
4 150 158 159 151
5 160 162 164 166 168
5 169 167 165 163 161
4 168 166 167 169
4 166 164 165 167
4 164 162 163 165
4 162 160 161 163
4 160 168 169 161
4 170 172 174 176
4 177 175 173 171
4 176 174 175 177
4 174 172 173 175
4 172 170 171 173
4 170 176 177 171
3 178 180 182
3 183 181 179
4 182 180 181 183
4 180 178 179 181
4 178 182 183 179
4 184 186 188 183
4 190 189 187 185
4 183 188 189 190
4 188 186 187 189
4 186 184 185 187
4 184 183 190 185
3 191 193 195
3 196 194 192
4 197 199 201 203
4 204 202 200 198
4 205 207 197 203
4 204 198 208 206
3 205 203 209
3 210 204 206
3 205 209 191
3 192 210 206
6 211 213 205 191 195 215
6 216 196 192 206 214 212
4 215 195 196 216
4 195 193 194 196
4 193 191 192 194
4 191 209 210 192
4 209 203 204 210
4 203 201 202 204
4 201 199 200 202
4 199 197 198 200
4 197 207 208 198
4 207 205 206 208
4 205 213 214 206
4 213 211 212 214
4 211 215 216 212
3 208 218 220
3 221 219 217
4 222 224 208 220
4 221 217 225 223
3 220 226 228
3 229 227 221
5 230 232 222 220 228
5 229 221 223 233 231
3 230 228 234
3 235 229 231
4 230 234 236 238
4 239 237 235 231
4 238 236 237 239
4 236 234 235 237
4 234 228 229 235
4 228 226 227 229
4 226 220 221 227
4 220 218 219 221
4 218 208 217 219
4 208 224 225 217
4 224 222 223 225
4 222 232 233 223
4 232 230 231 233
4 230 238 239 231
4 240 242 237 245
4 246 244 243 241
4 245 237 244 246
4 237 242 243 244
4 242 240 241 243
4 240 245 246 241
4 247 249 251 253
4 254 252 250 248
4 253 251 252 254
4 251 249 250 252
4 249 247 248 250
4 247 253 254 248
4 255 257 259 261
4 262 260 258 256
4 261 259 260 262
4 259 257 258 260
4 257 255 256 258
4 255 261 262 256
3 263 265 267
3 268 266 264
3 269 271 263
3 264 272 270
4 273 269 263 267
4 268 264 270 274
5 275 273 267 277 279
5 280 278 268 274 276
4 279 277 278 280
4 277 267 268 278
4 267 265 266 268
4 265 263 264 266
4 263 271 272 264
4 271 269 270 272
4 269 273 274 270
4 273 275 276 274
4 275 279 280 276
3 281 283 285
3 286 284 282
4 274 288 281 285
4 286 282 289 287
5 276 274 285 291 293
5 294 292 286 287 290
4 293 291 292 294
4 291 285 286 292
4 285 283 284 286
4 283 281 282 284
4 281 288 289 282
4 288 274 287 289
4 274 276 290 287
4 276 293 294 290
4 295 282 298 300
4 301 299 297 296
4 300 298 299 301
4 298 282 297 299
4 282 295 296 297
4 295 300 301 296
4 302 304 306 301
4 308 307 305 303
4 301 306 307 308
4 306 304 305 307
4 304 302 303 305
4 302 301 308 303
4 309 311 313 315
4 316 314 312 310
4 315 313 314 316
4 313 311 312 314
4 311 309 310 312
4 309 315 316 310
4 317 319 321 323
4 324 322 320 318
3 317 323 325
3 326 324 318
5 327 317 325 329 331
5 332 330 326 318 328
3 333 335 337
3 338 336 334
4 327 331 339 341
4 342 340 332 328
5 337 327 341 343 345
5 346 344 342 328 338
5 333 337 345 347 349
5 350 348 346 338 334
4 349 347 348 350
4 347 345 346 348
4 345 343 344 346
4 343 341 342 344
4 341 339 340 342
4 339 331 332 340
4 331 329 330 332
4 329 325 326 330
4 325 323 324 326
4 323 321 322 324
4 321 319 320 322
4 319 317 318 320
4 317 327 328 318
4 327 337 338 328
4 337 335 336 338
4 335 333 334 336
4 333 349 350 334
4 351 334 336 355
4 356 354 353 352
3 357 359 361
3 362 360 358
4 357 361 363 346
4 365 364 362 358
5 351 355 357 346 366
5 367 365 358 356 352
4 366 346 365 367
4 346 363 364 365
4 363 361 362 364
4 361 359 360 362
4 359 357 358 360
4 357 355 356 358
4 355 336 354 356
4 336 334 353 354
4 334 351 352 353
4 351 366 367 352
3 368 370 372
3 373 371 369
4 372 374 376 378
4 379 377 375 373
6 380 382 368 372 378 384
6 385 379 373 369 383 381
4 384 378 379 385
4 378 376 377 379
4 376 374 375 377
4 374 372 373 375
4 372 370 371 373
4 370 368 369 371
4 368 382 383 369
4 382 380 381 383
4 380 384 385 381
6 386 388 390 392 394 396
6 397 395 393 391 389 387
4 396 394 395 397
4 394 392 393 395
4 392 390 391 393
4 390 388 389 391
4 388 386 387 389
4 386 396 397 387
4 398 400 402 404
4 405 403 401 399
4 404 402 403 405
4 402 400 401 403
4 400 398 399 401
4 398 404 405 399
5 406 401 409 411 413
5 414 412 410 408 407
4 413 411 412 414
4 411 409 410 412
4 409 401 408 410
4 401 406 407 408
4 406 413 414 407
4 415 417 419 421
4 422 420 418 416
4 423 415 421 425
4 426 422 416 424
4 423 425 427 429
4 430 428 426 424
4 429 427 428 430
4 427 425 426 428
4 425 421 422 426
4 421 419 420 422
4 419 417 418 420
4 417 415 416 418
4 415 423 424 416
4 423 429 430 424
4 431 322 434 436
4 437 435 433 432
4 436 434 435 437
4 434 322 433 435
4 322 431 432 433
4 431 436 437 432
4 438 440 442 444
4 445 443 441 439
4 444 442 443 445
4 442 440 441 443
4 440 438 439 441
4 438 444 445 439
4 446 448 450 452
4 453 451 449 447
4 452 450 451 453
4 450 448 449 451
4 448 446 447 449
4 446 452 453 447
3 454 456 458
3 459 457 455
3 460 462 464
3 465 463 461
3 466 468 470
3 471 469 467
3 468 472 474
3 475 473 469
3 476 478 480
3 481 479 477
3 482 476 480
3 481 477 483
3 484 478 486
3 487 479 485
3 486 478 476
3 477 479 487
3 466 462 472
3 473 463 467
3 488 464 466
3 467 465 489
3 462 480 472
3 473 481 463
3 480 478 472
3 473 479 481
3 462 466 464
3 465 467 463
3 490 488 466
3 467 489 491
3 492 494 490
3 491 495 493
3 496 498 500
3 501 499 497
3 456 502 504
3 505 503 457
3 504 506 500
3 501 507 505
3 504 502 506
3 507 503 505
3 508 470 468
3 469 471 509
3 506 496 500
3 501 497 507
3 500 498 492
3 493 499 501
3 492 498 494
3 495 499 493
3 454 510 508
3 509 511 455
3 466 472 468
3 469 473 467
3 490 466 492
3 493 467 491
3 510 470 508
3 509 471 511
3 504 458 456
3 457 459 505
3 458 510 454
3 455 511 459
4 502 456 457 503
4 456 454 455 457
4 454 508 509 455
4 508 468 469 509
4 468 474 475 469
4 474 472 473 475
4 472 478 479 473
4 478 484 485 479
4 484 486 487 485
4 486 476 477 487
4 476 482 483 477
4 482 480 481 483
4 480 462 463 481
4 462 460 461 463
4 460 464 465 461
4 464 488 489 465
4 488 490 491 489
4 490 494 495 491
4 494 498 499 495
4 498 496 497 499
4 496 506 507 497
4 506 502 503 507
4 504 500 501 505
4 500 492 493 501
4 492 466 467 493
4 466 470 471 467
4 470 510 511 471
4 510 458 459 511
4 458 504 505 459
3 512 514 516
3 517 515 513
3 512 516 518
3 519 517 513
3 520 512 518
3 519 513 521
3 520 518 522
3 523 519 521
4 524 526 520 522
4 523 521 527 525
3 524 522 528
3 529 523 525
3 530 532 534
3 535 533 531
3 536 538 530
3 531 539 537
5 530 534 540 542 544
5 545 543 541 535 531
3 528 546 536
3 537 547 529
5 536 530 544 548 503
5 550 549 545 531 537
4 528 536 503 507
4 551 550 537 529
4 507 497 524 528
4 529 525 552 551
4 548 544 545 549
4 544 542 543 545
4 542 540 541 543
4 540 534 535 541
4 534 532 533 535
4 532 530 531 533
4 530 538 539 531
4 538 536 537 539
4 536 546 547 537
4 546 528 529 547
4 528 522 523 529
4 522 518 519 523
4 518 516 517 519
4 516 514 515 517
4 514 512 513 515
4 512 520 521 513
4 520 526 527 521
4 526 524 525 527
4 524 497 552 525
4 497 507 551 552
4 507 503 550 551
4 503 548 549 550
3 553 535 556
3 557 555 554
3 558 553 556
3 557 554 559
3 558 556 560
3 561 557 559
4 558 560 562 564
4 565 563 561 559
3 566 558 564
3 565 559 567
3 568 566 564
3 565 567 569
3 570 572 568
3 569 573 571
6 570 568 564 574 576 578
6 579 577 575 565 569 571
4 578 576 577 579
4 576 574 575 577
4 574 564 565 575
4 564 562 563 565
4 562 560 561 563
4 560 556 557 561
4 556 535 555 557
4 535 553 554 555
4 553 558 559 554
4 558 566 567 559
4 566 568 569 567
4 568 572 573 569
4 572 570 571 573
4 570 578 579 571
4 580 582 584 586
4 587 585 583 581
4 586 584 585 587
4 584 582 583 585
4 582 580 581 583
4 580 586 587 581
4 588 590 592 594
4 595 593 591 589
4 594 592 593 595
4 592 590 591 593
4 590 588 589 591
4 588 594 595 589
5 596 598 600 602 604
5 605 603 601 599 597
4 604 602 603 605
4 602 600 601 603
4 600 598 599 601
4 598 596 597 599
4 596 604 605 597
3 606 608 603
3 610 609 607
4 603 608 609 610
4 608 606 607 609
4 606 603 610 607
4 611 613 615 617
4 618 616 614 612
4 617 615 616 618
4 615 613 614 616
4 613 611 612 614
4 611 617 618 612
4 619 621 623 625
4 626 624 622 620
4 625 623 624 626
4 623 621 622 624
4 621 619 620 622
4 619 625 626 620
5 627 629 631 633 635
5 636 634 632 630 628
4 635 633 634 636
4 633 631 632 634
4 631 629 630 632
4 629 627 628 630
4 627 635 636 628
6 637 639 641 634 644 646
6 647 645 643 642 640 638
4 646 644 645 647
4 644 634 643 645
4 634 641 642 643
4 641 639 640 642
4 639 637 638 640
4 637 646 647 638
3 648 650 652
3 653 651 649
5 654 656 648 652 658
5 659 653 649 657 655
4 658 652 653 659
4 652 650 651 653
4 650 648 649 651
4 648 656 657 649
4 656 654 655 657
4 654 658 659 655
4 660 662 664 666
4 667 665 663 661
4 668 670 660 666
4 667 661 671 669
6 668 666 672 674 676 678
6 679 677 675 673 667 669
3 678 680 668
3 669 681 679
4 676 674 675 677
4 674 672 673 675
4 672 666 667 673
4 666 664 665 667
4 664 662 663 665
4 662 660 661 663
4 660 670 671 661
4 670 668 669 671
4 668 680 681 669
4 680 678 679 681
4 678 676 677 679
4 682 684 686 688
4 689 687 685 683
4 688 686 687 689
4 686 684 685 687
4 684 682 683 685
4 682 688 689 683
5 690 692 694 696 698
5 699 697 695 693 691
4 698 696 697 699
4 696 694 695 697
4 694 692 693 695
4 692 690 691 693
4 690 698 699 691
4 700 702 704 706
4 707 705 703 701
4 706 704 705 707
4 704 702 703 705
4 702 700 701 703
4 700 706 707 701
4 708 710 712 714
4 715 713 711 709
4 714 712 713 715
4 712 710 711 713
4 710 708 709 711
4 708 714 715 709
5 716 718 720 722 724
5 725 723 721 719 717
4 724 722 723 725
4 722 720 721 723
4 720 718 719 721
4 718 716 717 719
4 716 724 725 717
4 726 728 665 731
4 732 730 729 727
4 731 665 730 732
4 665 728 729 730
4 728 726 727 729
4 726 731 732 727
3 733 735 737
3 738 736 734
4 737 735 736 738
4 735 733 734 736
4 733 737 738 734
4 739 741 743 745
4 746 744 742 740
4 745 743 744 746
4 743 741 742 744
4 741 739 740 742
4 739 745 746 740
4 747 749 751 753
4 754 752 750 748
4 753 751 752 754
4 751 749 750 752
4 749 747 748 750
4 747 753 754 748
3 755 757 759
3 760 758 756
5 761 755 759 763 765
5 766 764 760 756 762
3 761 765 767
3 768 766 762
4 767 765 766 768
4 765 763 764 766
4 763 759 760 764
4 759 757 758 760
4 757 755 756 758
4 755 761 762 756
4 761 767 768 762
4 769 771 773 775
4 776 774 772 770
4 775 773 774 776
4 773 771 772 774
4 771 769 770 772
4 769 775 776 770
4 777 779 774 776
4 782 781 780 778
4 776 774 781 782
4 774 779 780 781
4 779 777 778 780
4 777 776 782 778
3 783 785 787
3 788 786 784
3 783 787 789
3 790 788 784
4 791 783 789 793
4 794 790 784 792
4 793 789 790 794
4 789 787 788 790
4 787 785 786 788
4 785 783 784 786
4 783 791 792 784
4 791 793 794 792
4 795 797 799 801
4 802 800 798 796
4 801 799 800 802
4 799 797 798 800
4 797 795 796 798
4 795 801 802 796
4 802 804 806 808
4 809 807 805 803
4 808 806 807 809
4 806 804 805 807
4 804 802 803 805
4 802 808 809 803
5 810 812 814 816 818
5 819 817 815 813 811
3 810 818 820
3 821 819 811
4 820 818 819 821
4 818 816 817 819
4 816 814 815 817
4 814 812 813 815
4 812 810 811 813
4 810 820 821 811
4 822 824 826 828
4 829 827 825 823
4 828 826 827 829
4 826 824 825 827
4 824 822 823 825
4 822 828 829 823
4 830 832 834 836
4 837 835 833 831
3 838 830 836
3 837 831 839
4 840 838 836 842
4 843 837 839 841
4 842 836 837 843
4 836 834 835 837
4 834 832 833 835
4 832 830 831 833
4 830 838 839 831
4 838 840 841 839
4 840 842 843 841
4 833 835 837 847
4 848 846 845 844
4 847 837 846 848
4 837 835 845 846
4 835 833 844 845
4 833 847 848 844
4 849 851 853 855
4 856 854 852 850
4 855 853 854 856
4 853 851 852 854
4 851 849 850 852
4 849 855 856 850
4 857 859 861 863
4 864 862 860 858
4 863 861 862 864
4 861 859 860 862
4 859 857 858 860
4 857 863 864 858
4 865 867 869 871
4 872 870 868 866
4 871 869 870 872
4 869 867 868 870
4 867 865 866 868
4 865 871 872 866
4 873 875 877 879
4 880 878 876 874
4 879 877 878 880
4 877 875 876 878
4 875 873 874 876
4 873 879 880 874
